<svg xmlns="http://www.w3.org/2000/svg" version="1.1" xmlns:xlink="http://www.w3.org/1999/xlink" xmlns:svgjs="http://svgjs.dev/svgjs" width="1000" height="1000" viewBox="0 0 1000 1000"><rect width="1000" height="1000" fill="#003366"></rect><g transform="matrix(0.7,0,0,0.7,149.57575761893042,282.1265587044535)"><svg viewBox="0 0 396 247" data-background-color="#003366" preserveAspectRatio="xMidYMid meet" height="623" width="1000" xmlns="http://www.w3.org/2000/svg" xmlns:xlink="http://www.w3.org/1999/xlink"><defs></defs><g id="tight-bounds" transform="matrix(1,0,0,1,0.24000002442357982,-0.09999999999999432)"><svg viewBox="0 0 395.52 247.2" height="247.2" width="395.52"><g><svg viewBox="0 0 395.52 247.2" height="247.2" width="395.52"><rect width="395.52" height="247.2" x="0" y="0" opacity="1" fill="#003366" data-fill-palette-color="background"></rect><g transform="matrix(1,0,0,1,0,13.934796079671187)"><svg viewBox="0 0 395.52 219.3304078406576" height="219.3304078406576" width="395.52"><g><svg viewBox="0 0 395.52 219.3304078406576" height="219.3304078406576" width="395.52"><g><svg viewBox="0 0 395.52 219.3304078406576" height="219.3304078406576" width="395.52"><g><svg viewBox="0 0 395.52 219.3304078406576" height="219.3304078406576" width="395.52"><g><svg viewBox="0 0 395.52 219.3304078406576" height="219.3304078406576" width="395.52"><g transform="matrix(1,0,0,1,0,0)"><svg width="395.52" viewBox="2.490000009536743 -37.0099983215332 77.22000122070312 42.81999969482422" height="219.3304078406576" data-palette-color="#ffffff"><path d="M3.66-32.79L3.66-37.01 15.65-37.01 15.65-32.79 12.55-32.79 12.55-4.2Q12.55-3.66 12.29-2.94 12.04-2.22 11.63-1.42 11.23-0.61 10.69 0.23 10.16 1.07 9.62 1.88L9.62 1.88Q8.33 3.76 6.69 5.81L6.69 5.81 2.49 5.44Q3.93 3.25 5.08 1.25L5.08 1.25Q5.57 0.39 6.03-0.5 6.49-1.39 6.86-2.22 7.23-3.05 7.46-3.77 7.69-4.49 7.69-5L7.69-5 7.69-32.79 3.66-32.79ZM17.89-32.79L17.89-37.01 29.9-37.01 29.9-32.79 26.39-32.79 33.35-20.9 40.79-32.79 36.94-32.79 36.94-37.01 48.95-37.01 48.95-32.79 45.8-32.79 35.4-17.02 35.4-4.2 39.21-4.2 39.21 0 27.19 0 27.19-4.2 30.59-4.2 30.59-17.14 20.77-32.79 17.89-32.79ZM53.19-32.79L53.19-37.01 79.71-37.01 79.71-26.54 74.7-26.54 74.7-32.79 61.49-32.79 61.49-20.9 74.21-20.9 74.21-16.8 61.49-16.8 61.49-4.2 65.2-4.2 65.2 0 53.19 0 53.19-4.2 56.71-4.2 56.71-32.79 53.19-32.79Z" opacity="1" transform="matrix(1,0,0,1,0,0)" fill="#ffffff" class="undefined-text-0" data-fill-palette-color="primary" id="text-0"></path></svg></g></svg></g></svg></g></svg></g></svg></g></svg></g></svg></g></svg><rect width="395.52" height="247.2" fill="none" stroke="none" visibility="hidden"></rect></g></svg></g></svg>