<?xml version="1.0" standalone="no"?>
<!DOCTYPE svg PUBLIC "-//W3C//DTD SVG 20010904//EN"
 "http://www.w3.org/TR/2001/REC-SVG-20010904/DTD/svg10.dtd">
<svg version="1.0" xmlns="http://www.w3.org/2000/svg"
 width="700.000000pt" height="700.000000pt" viewBox="0 0 700.000000 700.000000"
 preserveAspectRatio="xMidYMid meet">
<metadata>
Created by potrace 1.14, written by Peter Selinger 2001-2017
</metadata>
<g transform="translate(0.000000,700.000000) scale(0.100000,-0.100000)"
fill="#000000" stroke="none">
<path d="M0 3500 l0 -3500 3500 0 3500 0 0 3500 0 3500 -3500 0 -3500 0 0
-3500z m1880 1220 l0 -130 -95 0 -95 0 0 -903 c0 -998 3 -953 -65 -1087 -40
-80 -174 -281 -254 -383 l-54 -69 -91 7 c-50 4 -107 10 -127 14 l-36 6 79 125
c98 157 213 386 233 465 13 50 15 189 15 942 l0 883 -130 0 -130 0 0 130 0
130 375 0 375 0 0 -130z m900 0 l0 -129 -109 -3 -108 -3 214 -365 c117 -201
217 -371 222 -379 6 -9 81 103 245 365 l237 379 -121 3 -120 3 0 129 0 130
375 0 375 0 0 -130 0 -130 -99 0 -99 0 -331 -502 -331 -502 0 -408 0 -408 120
0 120 0 0 -125 0 -125 -375 0 -375 0 0 125 0 124 108 3 107 3 3 408 2 407
-312 500 -313 499 -92 1 -93 0 0 130 0 130 375 0 375 0 0 -130z m3160 -195 l0
-325 -155 0 -155 0 0 195 0 195 -425 0 -425 0 0 -380 0 -380 405 0 405 0 0
-125 0 -125 -405 0 -405 0 2 -402 3 -403 118 -3 117 -3 0 -124 0 -125 -375 0
-375 0 0 125 0 125 110 0 110 0 0 910 0 910 -110 0 -110 0 0 130 0 130 835 0
835 0 0 -325z"/>
</g>
</svg>
